<svg width="194" height="194" viewBox="0 0 194 194" fill="none" xmlns="http://www.w3.org/2000/svg">
<rect x="2.5" y="2.5" width="189" height="189" rx="37.5" fill="url(#paint0_linear_744_198)" stroke="#4093FF" stroke-width="5"/>
<path d="M68.6731 82.6102L67.5941 85.0926C67.4255 85.4969 67.141 85.8422 66.7766 86.085C66.4121 86.3279 65.9839 86.4575 65.5459 86.4575C65.1079 86.4575 64.6797 86.3279 64.3152 86.085C63.9508 85.8422 63.6663 85.4969 63.4977 85.0926L62.4187 82.6102C60.5217 78.2187 57.0477 74.6977 52.682 72.7419L49.3531 71.2551C48.9492 71.0693 48.6071 70.7716 48.3673 70.3973C48.1275 70.023 48 69.5878 48 69.1432C48 68.6987 48.1275 68.2635 48.3673 67.8892C48.6071 67.5149 48.9492 67.2172 49.3531 67.0314L52.4978 65.6323C56.9732 63.6208 60.5067 59.9696 62.3705 55.4307L63.4845 52.7509C63.6475 52.3358 63.9317 51.9794 64.3002 51.7282C64.6687 51.477 65.1043 51.3427 65.5503 51.3427C65.9962 51.3427 66.4319 51.477 66.8003 51.7282C67.1688 51.9794 67.4531 52.3358 67.616 52.7509L68.7257 55.4263C70.5875 59.9661 74.1194 63.6189 78.594 65.6323L81.7431 67.0358C82.1457 67.2221 82.4866 67.5198 82.7255 67.8936C82.9645 68.2674 83.0914 68.7018 83.0914 69.1454C83.0914 69.5891 82.9645 70.0235 82.7255 70.3973C82.4866 70.7711 82.1457 71.0687 81.7431 71.2551L78.4098 72.7375C74.045 74.6952 70.5725 78.2178 68.6774 82.6102" fill="#4093FF"/>
<path d="M81.5157 54.157L80.8996 55.5737C80.8033 55.8044 80.6408 56.0014 80.4327 56.14C80.2245 56.2786 79.98 56.3526 79.7299 56.3526C79.4798 56.3526 79.2352 56.2786 79.0271 56.14C78.8189 56.0014 78.6565 55.8044 78.5602 55.5737L77.944 54.157C76.8607 51.6507 74.8767 49.6413 72.3836 48.5252L70.4826 47.6766C70.2519 47.5706 70.0565 47.4007 69.9196 47.1871C69.7826 46.9735 69.7098 46.7251 69.7098 46.4714C69.7098 46.2177 69.7826 45.9694 69.9196 45.7558C70.0565 45.5422 70.2519 45.3723 70.4826 45.2662L72.2784 44.4678C74.8342 43.3198 76.8521 41.2361 77.9165 38.6458L78.5527 37.1164C78.6457 36.8795 78.8081 36.6761 79.0185 36.5328C79.2289 36.3894 79.4777 36.3127 79.7324 36.3127C79.9871 36.3127 80.2358 36.3894 80.4463 36.5328C80.6567 36.6761 80.819 36.8795 80.9121 37.1164L81.5458 38.6433C82.609 41.2341 84.626 43.3187 87.1813 44.4678L88.9797 45.2687C89.2096 45.3751 89.4043 45.5449 89.5408 45.7583C89.6772 45.9716 89.7497 46.2195 89.7497 46.4727C89.7497 46.7259 89.6772 46.9738 89.5408 47.1871C89.4043 47.4005 89.2096 47.5703 88.9797 47.6766L87.0761 48.5227C84.5835 49.6399 82.6004 51.6503 81.5182 54.157" fill="white"/>
<path d="M97.3807 66.6819L96.7646 68.0986C96.6683 68.3293 96.5058 68.5263 96.2977 68.6649C96.0895 68.8036 95.845 68.8775 95.5949 68.8775C95.3447 68.8775 95.1002 68.8036 94.8921 68.6649C94.6839 68.5263 94.5215 68.3293 94.4252 68.0986L93.809 66.6819C92.7257 64.1756 90.7417 62.1662 88.2486 61.0501L86.3476 60.2016C86.1169 60.0955 85.9215 59.9256 85.7846 59.712C85.6476 59.4984 85.5748 59.25 85.5748 58.9963C85.5748 58.7427 85.6476 58.4943 85.7846 58.2807C85.9215 58.0671 86.1169 57.8972 86.3476 57.7911L88.1434 56.9927C90.6992 55.8447 92.7171 53.761 93.7815 51.1707L94.4177 49.6413C94.5107 49.4044 94.6731 49.201 94.8835 49.0577C95.0939 48.9143 95.3427 48.8376 95.5974 48.8376C95.852 48.8376 96.1008 48.9143 96.3112 49.0577C96.5217 49.201 96.684 49.4044 96.7771 49.6413L97.4108 51.1682C98.474 53.759 100.491 55.8436 103.046 56.9927L104.845 57.7936C105.075 57.9 105.269 58.0698 105.406 58.2832C105.542 58.4965 105.615 58.7444 105.615 58.9976C105.615 59.2508 105.542 59.4987 105.406 59.712C105.269 59.9254 105.075 60.0952 104.845 60.2016L102.941 61.0476C100.448 62.1648 98.4654 64.1752 97.3832 66.6819" fill="#4093FF"/>
<path d="M115.733 78.6089L136.452 99.3323C137.666 100.546 138.498 102.089 138.843 103.771C139.188 105.453 139.033 107.199 138.395 108.793L128.022 134.727C127.441 136.178 126.481 137.448 125.243 138.404C124.006 139.361 122.535 139.969 120.983 140.165L98.707 142.95C98.1339 143.017 97.5345 143.099 96.9088 143.196L94.9615 143.512L93.9439 143.696L90.7729 144.31L88.6019 144.77L85.3344 145.507L81.1458 146.507L74.3389 148.244L71.5056 149.007C70.7906 149.204 70.0376 149.218 69.3158 149.048C68.594 148.878 67.9264 148.529 67.3743 148.034C66.8221 147.539 66.403 146.914 66.1555 146.215C65.9079 145.516 65.8398 144.766 65.9574 144.034L66.1065 143.393L67.4004 138.516L68.5583 133.92L69.5582 129.731L70.2907 126.464L70.7512 124.288L71.3696 121.122L71.7205 119.117L72.0012 117.24L74.8959 94.0824C75.0929 92.5303 75.7015 91.059 76.6585 89.8213C77.6156 88.5836 78.8862 87.6243 80.3388 87.043L106.273 76.6703C107.867 76.0329 109.613 75.8772 111.294 76.2226C112.976 76.568 114.519 77.3948 115.733 78.6089ZM99.4614 103.192C98.3533 104.301 97.5626 105.686 97.1716 107.204C96.7805 108.722 96.8033 110.317 97.2377 111.823C96.918 112.011 96.6233 112.238 96.3606 112.499L78.5625 130.297C78.4459 130.415 78.3653 130.564 78.3301 130.727L77.9397 132.415L77.159 135.674L76.7818 137.213C76.7432 137.361 76.744 137.517 76.7841 137.665C76.8242 137.812 76.9022 137.947 77.0104 138.055C77.1185 138.163 77.2531 138.241 77.4008 138.281C77.5484 138.321 77.704 138.322 77.852 138.284L80.9967 137.516L84.3432 136.735C84.5045 136.698 84.652 136.616 84.7686 136.499L102.567 118.701C102.828 118.439 103.055 118.146 103.242 117.828C104.728 118.255 106.301 118.282 107.801 117.905C109.301 117.529 110.674 116.763 111.783 115.684C112.891 114.606 113.695 113.254 114.112 111.765C114.529 110.276 114.546 108.703 114.159 107.206C113.773 105.709 112.998 104.34 111.912 103.239C110.826 102.138 109.469 101.343 107.977 100.936C106.485 100.528 104.913 100.522 103.418 100.918C101.923 101.315 100.56 102.099 99.4658 103.192H99.4614ZM119.891 70.3677C120.646 69.6119 121.65 69.1575 122.716 69.0897C123.782 69.0218 124.836 69.3453 125.68 69.9993L126.093 70.3677L144.702 88.9728C145.497 89.7602 145.961 90.8218 145.999 91.9401C146.037 93.0584 145.646 94.1489 144.906 94.9884C144.166 95.828 143.134 96.353 142.02 96.4561C140.905 96.5591 139.794 96.2325 138.913 95.5429L138.496 95.1745L119.891 76.5694C119.069 75.7469 118.607 74.6316 118.607 73.4686C118.607 72.3056 119.069 71.1902 119.891 70.3677Z" fill="white"/>
<defs>
<linearGradient id="paint0_linear_744_198" x1="97" y1="-81" x2="97" y2="131" gradientUnits="userSpaceOnUse">
<stop stop-color="#595959"/>
<stop offset="1"/>
</linearGradient>
</defs>
</svg>
