<svg width="504" height="160" viewBox="0 0 504 160" fill="none" xmlns="http://www.w3.org/2000/svg">
<path d="M159.688 9.05872H174.938V67.5587L203.188 36.7462H220.438L194.625 65.7462L222.062 103.559H205.188L183.25 72.6212L174.938 80.9962V103.559H159.688V9.05872ZM249.75 104.996C242.833 104.996 237.271 104.1 233.062 102.309C228.896 100.517 225.875 98.017 224 94.8087C222.125 91.5587 221.188 87.767 221.188 83.4337V56.9337C221.188 52.517 222.25 48.7045 224.375 45.4962C226.5 42.2462 229.688 39.7462 233.938 37.9962C238.188 36.2462 243.458 35.3712 249.75 35.3712C256.042 35.3712 261.292 36.2462 265.5 37.9962C269.75 39.7462 272.938 42.2462 275.062 45.4962C277.229 48.7045 278.312 52.517 278.312 56.9337V83.4337C278.312 87.767 277.396 91.5587 275.562 94.8087C273.729 98.017 270.729 100.517 266.562 102.309C262.396 104.1 256.792 104.996 249.75 104.996ZM249.75 94.1212C253.708 94.1212 256.917 93.392 259.375 91.9337C261.833 90.4754 263.062 87.9337 263.062 84.3087V56.1212C263.062 52.4545 261.854 49.892 259.438 48.4337C257.062 46.9754 253.833 46.2462 249.75 46.2462C245.75 46.2462 242.521 46.9754 240.062 48.4337C237.646 49.892 236.438 52.4545 236.438 56.1212V84.3087C236.438 87.9337 237.604 90.4754 239.938 91.9337C242.312 93.392 245.583 94.1212 249.75 94.1212ZM287.375 81.3712V9.05872H302.625V81.2462C302.625 84.0795 302.979 86.3295 303.688 87.9962C304.396 89.6212 305.625 90.7879 307.375 91.4962C309.125 92.1629 311.562 92.4962 314.688 92.4962H316.75L315.438 104.246H309.562C304.646 104.246 300.542 103.58 297.25 102.246C293.958 100.871 291.479 98.5379 289.812 95.2462C288.188 91.9129 287.375 87.2879 287.375 81.3712ZM347.375 104.996C340.458 104.996 334.896 104.1 330.688 102.309C326.521 100.517 323.5 98.017 321.625 94.8087C319.75 91.5587 318.812 87.767 318.812 83.4337V56.9337C318.812 52.517 319.875 48.7045 322 45.4962C324.125 42.2462 327.312 39.7462 331.562 37.9962C335.812 36.2462 341.083 35.3712 347.375 35.3712C353.667 35.3712 358.917 36.2462 363.125 37.9962C367.375 39.7462 370.562 42.2462 372.688 45.4962C374.854 48.7045 375.938 52.517 375.938 56.9337V83.4337C375.938 87.767 375.021 91.5587 373.188 94.8087C371.354 98.017 368.354 100.517 364.188 102.309C360.021 104.1 354.417 104.996 347.375 104.996ZM347.375 94.1212C351.333 94.1212 354.542 93.392 357 91.9337C359.458 90.4754 360.688 87.9337 360.688 84.3087V56.1212C360.688 52.4545 359.479 49.892 357.062 48.4337C354.688 46.9754 351.458 46.2462 347.375 46.2462C343.375 46.2462 340.146 46.9754 337.688 48.4337C335.271 49.892 334.062 52.4545 334.062 56.1212V84.3087C334.062 87.9337 335.229 90.4754 337.562 91.9337C339.938 93.392 343.208 94.1212 347.375 94.1212ZM384.75 36.7462H400V42.8712C400.875 41.9129 402.146 40.8504 403.812 39.6837C405.521 38.517 407.667 37.517 410.25 36.6837C412.875 35.8087 415.958 35.3712 419.5 35.3712C424.125 35.3712 428 36.0795 431.125 37.4962C434.25 38.9129 436.646 41.017 438.312 43.8087C440.896 41.2254 443.938 39.1837 447.438 37.6837C450.938 36.142 455.25 35.3712 460.375 35.3712C465.083 35.3712 469.021 36.2045 472.188 37.8712C475.354 39.4962 477.75 41.7462 479.375 44.6212C481.042 47.4545 481.875 50.7254 481.875 54.4337V103.559H466.625V55.5587C466.625 52.1004 465.604 49.767 463.562 48.5587C461.562 47.3087 459 46.6837 455.875 46.6837C453.292 46.6837 450.875 47.0795 448.625 47.8712C446.417 48.6629 444.625 49.8087 443.25 51.3087C441.917 52.767 441.188 54.517 441.062 56.5587V103.559H425.812V55.5587C425.812 52.1004 424.729 49.767 422.562 48.5587C420.438 47.3087 417.812 46.6837 414.688 46.6837C412.062 46.6837 409.625 47.1004 407.375 47.9337C405.167 48.7254 403.375 49.892 402 51.4337C400.667 52.9754 400 54.8504 400 57.0587V103.559H384.75V36.7462Z" fill="white"/>
<path d="M27.4233 61.4147L25.9921 64.7077C25.7684 65.2439 25.3911 65.702 24.9076 66.0242C24.4241 66.3464 23.8561 66.5183 23.2751 66.5183C22.6941 66.5183 22.1261 66.3464 21.6426 66.0242C21.1591 65.702 20.7817 65.2439 20.5581 64.7077L19.1268 61.4147C16.6104 55.5892 12.002 50.9185 6.21081 48.3241L1.79492 46.3518C1.25919 46.1054 0.805355 45.7105 0.487222 45.214C0.169089 44.7175 0 44.1401 0 43.5504C0 42.9607 0.169089 42.3834 0.487222 41.8869C0.805355 41.3904 1.25919 40.9955 1.79492 40.7491L5.96645 38.8931C11.9032 36.2248 16.5905 31.3813 19.0628 25.3604L20.5406 21.8056C20.7568 21.2549 21.1339 20.7822 21.6227 20.4489C22.1115 20.1157 22.6893 19.9375 23.2809 19.9375C23.8725 19.9375 24.4503 20.1157 24.9391 20.4489C25.4279 20.7822 25.805 21.2549 26.0212 21.8056L27.4932 25.3546C29.9628 31.3767 34.6481 36.2222 40.5837 38.8931L44.7611 40.7549C45.2952 41.002 45.7474 41.3969 46.0643 41.8927C46.3813 42.3886 46.5497 42.9648 46.5497 43.5534C46.5497 44.1419 46.3813 44.7181 46.0643 45.214C45.7474 45.7098 45.2952 46.1047 44.7611 46.3518L40.3394 48.3183C34.5493 50.9153 29.943 55.5881 27.4292 61.4147" fill="#4093FF"/>
<path d="M44.4595 23.6708L43.6422 25.5501C43.5144 25.8561 43.2989 26.1175 43.0228 26.3014C42.7467 26.4853 42.4223 26.5834 42.0905 26.5834C41.7587 26.5834 41.4344 26.4853 41.1583 26.3014C40.8822 26.1175 40.6667 25.8561 40.5389 25.5501L39.7216 23.6708C38.2845 20.3463 35.6527 17.6807 32.3455 16.2001L29.8237 15.0745C29.5178 14.9339 29.2586 14.7085 29.0769 14.4252C28.8953 14.1418 28.7987 13.8123 28.7987 13.4758C28.7987 13.1392 28.8953 12.8098 29.0769 12.5264C29.2586 12.243 29.5178 12.0177 29.8237 11.877L32.206 10.8179C35.5963 9.2951 38.2731 6.53094 39.685 3.09481L40.529 1.06609C40.6524 0.751836 40.8678 0.482041 41.1469 0.291876C41.426 0.101712 41.756 0 42.0939 0C42.4317 0 42.7617 0.101712 43.0408 0.291876C43.32 0.482041 43.5353 0.751836 43.6588 1.06609L44.4994 3.09149C45.9098 6.52827 48.5854 9.29362 51.9751 10.8179L54.3607 11.8804C54.6657 12.0214 54.9239 12.2467 55.1049 12.5297C55.2859 12.8127 55.3821 13.1416 55.3821 13.4774C55.3821 13.8133 55.2859 14.1421 55.1049 14.4251C54.9239 14.7081 54.6657 14.9335 54.3607 15.0745L51.8355 16.1968C48.529 17.6789 45.8984 20.3456 44.4628 23.6708" fill="white"/>
<path d="M65.5047 40.2853L64.6873 42.1646C64.5596 42.4706 64.3441 42.732 64.068 42.9159C63.7919 43.0998 63.4675 43.1979 63.1357 43.1979C62.8039 43.1979 62.4795 43.0998 62.2034 42.9159C61.9273 42.732 61.7118 42.4706 61.5841 42.1646L60.7667 40.2853C59.3297 36.9608 56.6979 34.2952 53.3907 32.8146L50.8689 31.689C50.563 31.5484 50.3038 31.323 50.1221 31.0397C49.9404 30.7563 49.8439 30.4268 49.8439 30.0903C49.8439 29.7537 49.9404 29.4243 50.1221 29.1409C50.3038 28.8575 50.563 28.6322 50.8689 28.4915L53.2512 27.4324C56.6415 25.9096 59.3183 23.1454 60.7302 19.7093L61.5741 17.6806C61.6976 17.3663 61.9129 17.0965 62.1921 16.9064C62.4712 16.7162 62.8012 16.6145 63.139 16.6145C63.4769 16.6145 63.8069 16.7162 64.086 16.9064C64.3652 17.0965 64.5805 17.3663 64.704 17.6806L65.5446 19.706C66.9549 23.1428 69.6306 25.9081 73.0203 27.4324L75.4058 28.4949C75.7109 28.6359 75.9691 28.8612 76.1501 29.1442C76.3311 29.4272 76.4273 29.7561 76.4273 30.0919C76.4273 30.4278 76.3311 30.7567 76.1501 31.0396C75.9691 31.3226 75.7109 31.548 75.4058 31.689L72.8807 32.8113C69.5742 34.2934 66.9436 36.9601 65.508 40.2853" fill="#4093FF"/>
<path d="M89.8497 56.1069L117.334 83.5971C118.945 85.2071 120.047 87.2544 120.505 89.4852C120.964 91.7159 120.757 94.032 119.911 96.1466L106.152 130.549C105.38 132.474 104.107 134.159 102.465 135.427C100.823 136.696 98.8722 137.502 96.8139 137.763L67.2641 141.457C66.5039 141.547 65.7088 141.655 64.8787 141.783L62.2955 142.202L60.9458 142.446L56.7393 143.261L53.8594 143.872L49.525 144.849L43.9687 146.176L34.9392 148.48L31.1807 149.492C30.2322 149.753 29.2335 149.771 28.276 149.546C27.3185 149.32 26.4329 148.858 25.7004 148.202C24.968 147.545 24.4121 146.715 24.0837 145.788C23.7553 144.861 23.6649 143.866 23.8209 142.894L24.0187 142.045L25.7351 135.575L27.271 129.478L28.5975 123.922L29.5691 119.587L30.18 116.702L31.0004 112.501L31.4658 109.842L31.8382 107.352L35.6781 76.6329C35.9394 74.5739 36.7467 72.6223 38.0162 70.9804C39.2857 69.3385 40.9713 68.0661 42.8982 67.2949L77.3002 53.5353C79.4147 52.6898 81.7309 52.4832 83.9616 52.9414C86.1924 53.3995 88.2396 54.4964 89.8497 56.1069ZM68.2648 88.7169C66.7949 90.1878 65.7461 92.0256 65.2273 94.0393C64.7085 96.0529 64.7388 98.1688 65.3151 100.167C64.8909 100.415 64.5 100.716 64.1515 101.063L40.5419 124.672C40.3872 124.829 40.2803 125.027 40.2336 125.243L39.7158 127.482L38.6802 131.805L38.1798 133.847C38.1286 134.044 38.1296 134.25 38.1828 134.446C38.236 134.642 38.3395 134.82 38.483 134.964C38.6265 135.107 38.805 135.211 39.0008 135.264C39.1967 135.317 39.403 135.318 39.5994 135.267L43.7709 134.249L48.2101 133.213C48.4241 133.164 48.6197 133.055 48.7744 132.899L72.384 109.289C72.7302 108.943 73.0313 108.554 73.28 108.132C75.2514 108.698 77.3376 108.734 79.3272 108.235C81.3168 107.735 83.139 106.719 84.6092 105.289C86.0795 103.858 87.1454 102.064 87.6991 100.089C88.2527 98.1141 88.2744 96.0277 87.7619 94.0415C87.2495 92.0553 86.221 90.2398 84.7809 88.7791C83.3407 87.3184 81.54 86.2643 79.5612 85.7238C77.5824 85.1832 75.4959 85.1754 73.5132 85.701C71.5304 86.2267 69.7218 87.2671 68.2707 88.7169H68.2648ZM95.3652 45.1748C96.3663 44.1722 97.6988 43.5694 99.1128 43.4794C100.527 43.3894 101.925 43.8185 103.045 44.6861L103.592 45.1748L128.278 69.8549C129.332 70.8995 129.948 72.3076 129.998 73.7911C130.048 75.2745 129.53 76.7211 128.549 77.8348C127.567 78.9484 126.197 79.6449 124.719 79.7816C123.241 79.9184 121.767 79.485 120.598 78.5703L120.045 78.0816L95.3652 53.4015C94.2745 52.3105 93.6618 50.8309 93.6618 49.2882C93.6618 47.7454 94.2745 46.2658 95.3652 45.1748Z" fill="white"/>
<path d="M154.648 141.823V128.346H151.039V124.55H154.836L155.398 116.581H160.367V124.55H166.438V128.346H160.367V141.401C160.367 142.995 160.75 144.073 161.516 144.635C162.297 145.182 163.68 145.456 165.664 145.456H166.648L166.32 149.862H164.961C162.508 149.862 160.523 149.62 159.008 149.135C157.508 148.651 156.406 147.823 155.703 146.651C155 145.464 154.648 143.854 154.648 141.823ZM169.734 141.425V132.003C169.734 129.518 170.648 127.573 172.477 126.167C174.32 124.745 176.922 124.034 180.281 124.034C184 124.034 186.672 124.753 188.297 126.19C189.922 127.612 190.734 129.565 190.734 132.05V138.073H175.453V141.964C175.453 143.635 175.844 144.737 176.625 145.268C177.406 145.8 178.688 146.065 180.469 146.065C181.75 146.065 182.742 145.979 183.445 145.807C184.148 145.62 184.648 145.26 184.945 144.729C185.258 144.182 185.43 143.354 185.461 142.245H190.711C190.633 144.276 190.227 145.87 189.492 147.026C188.773 148.167 187.664 148.971 186.164 149.44C184.664 149.909 182.742 150.143 180.398 150.143C178.211 150.143 176.312 149.862 174.703 149.3C173.109 148.721 171.883 147.8 171.023 146.534C170.164 145.253 169.734 143.55 169.734 141.425ZM185.297 134.487V131.393C185.297 130.425 185.086 129.714 184.664 129.26C184.242 128.792 183.664 128.487 182.93 128.346C182.195 128.19 181.352 128.112 180.398 128.112C178.961 128.112 177.773 128.346 176.836 128.815C175.914 129.268 175.453 130.198 175.453 131.604V134.487H185.297ZM204.977 150.143C202.242 150.143 200.125 149.76 198.625 148.995C197.125 148.214 196.078 147.19 195.484 145.925C194.891 144.659 194.594 143.284 194.594 141.8V131.932C194.594 129.479 195.5 127.55 197.312 126.143C199.125 124.737 201.648 124.034 204.883 124.034C207.055 124.034 208.891 124.3 210.391 124.831C211.891 125.346 213.031 126.253 213.812 127.55C214.609 128.846 215.008 130.675 215.008 133.034L209.617 133.479C209.617 131.948 209.484 130.807 209.219 130.057C208.953 129.292 208.492 128.776 207.836 128.51C207.18 128.245 206.258 128.112 205.07 128.112C203.539 128.112 202.359 128.409 201.531 129.003C200.719 129.581 200.312 130.573 200.312 131.979V142.01C200.312 143.495 200.711 144.534 201.508 145.128C202.32 145.721 203.508 146.018 205.07 146.018C206.289 146.018 207.219 145.909 207.859 145.69C208.516 145.456 208.969 145.003 209.219 144.331C209.469 143.643 209.617 142.612 209.664 141.237H214.984C214.938 143.425 214.609 145.167 214 146.464C213.391 147.76 212.367 148.698 210.93 149.276C209.492 149.854 207.508 150.143 204.977 150.143ZM219.5 114.167H225.219V126.94C225.828 126.081 226.82 125.385 228.195 124.854C229.586 124.307 231.164 124.034 232.93 124.034C234.695 124.034 236.172 124.339 237.359 124.948C238.547 125.557 239.438 126.401 240.031 127.479C240.641 128.542 240.945 129.76 240.945 131.135V149.604H235.227V131.675C235.227 130.8 235.008 130.128 234.57 129.659C234.133 129.175 233.562 128.831 232.859 128.628C232.172 128.425 231.43 128.323 230.633 128.323C229.648 128.323 228.742 128.479 227.914 128.792C227.102 129.089 226.445 129.526 225.945 130.104C225.461 130.667 225.219 131.346 225.219 132.143V149.604H219.5V114.167ZM246.633 124.55H252.352V126.823C253.242 125.995 254.273 125.323 255.445 124.807C256.617 124.276 258.117 124.01 259.945 124.01C261.883 124.01 263.445 124.354 264.633 125.042C265.836 125.729 266.711 126.643 267.258 127.784C267.82 128.909 268.102 130.167 268.102 131.557V149.604H262.383V131.698C262.383 130.839 262.156 130.167 261.703 129.682C261.25 129.182 260.664 128.831 259.945 128.628C259.227 128.425 258.477 128.323 257.695 128.323C256.695 128.323 255.789 128.479 254.977 128.792C254.18 129.104 253.539 129.55 253.055 130.128C252.586 130.706 252.352 131.401 252.352 132.214V149.604H246.633V124.55ZM283.68 150.143C281.086 150.143 279 149.807 277.422 149.135C275.859 148.464 274.727 147.526 274.023 146.323C273.32 145.104 272.969 143.682 272.969 142.057V132.12C272.969 130.464 273.367 129.034 274.164 127.831C274.961 126.612 276.156 125.675 277.75 125.018C279.344 124.362 281.32 124.034 283.68 124.034C286.039 124.034 288.008 124.362 289.586 125.018C291.18 125.675 292.375 126.612 293.172 127.831C293.984 129.034 294.391 130.464 294.391 132.12V142.057C294.391 143.682 294.047 145.104 293.359 146.323C292.672 147.526 291.547 148.464 289.984 149.135C288.422 149.807 286.32 150.143 283.68 150.143ZM283.68 146.065C285.164 146.065 286.367 145.792 287.289 145.245C288.211 144.698 288.672 143.745 288.672 142.385V131.815C288.672 130.44 288.219 129.479 287.312 128.932C286.422 128.385 285.211 128.112 283.68 128.112C282.18 128.112 280.969 128.385 280.047 128.932C279.141 129.479 278.688 130.44 278.688 131.815V142.385C278.688 143.745 279.125 144.698 280 145.245C280.891 145.792 282.117 146.065 283.68 146.065ZM299.539 141.284V114.167H305.258V141.237C305.258 142.3 305.391 143.143 305.656 143.768C305.922 144.378 306.383 144.815 307.039 145.081C307.695 145.331 308.609 145.456 309.781 145.456H310.555L310.062 149.862H307.859C306.016 149.862 304.477 149.612 303.242 149.112C302.008 148.596 301.078 147.721 300.453 146.487C299.844 145.237 299.539 143.503 299.539 141.284ZM323.789 150.143C321.195 150.143 319.109 149.807 317.531 149.135C315.969 148.464 314.836 147.526 314.133 146.323C313.43 145.104 313.078 143.682 313.078 142.057V132.12C313.078 130.464 313.477 129.034 314.273 127.831C315.07 126.612 316.266 125.675 317.859 125.018C319.453 124.362 321.43 124.034 323.789 124.034C326.148 124.034 328.117 124.362 329.695 125.018C331.289 125.675 332.484 126.612 333.281 127.831C334.094 129.034 334.5 130.464 334.5 132.12V142.057C334.5 143.682 334.156 145.104 333.469 146.323C332.781 147.526 331.656 148.464 330.094 149.135C328.531 149.807 326.43 150.143 323.789 150.143ZM323.789 146.065C325.273 146.065 326.477 145.792 327.398 145.245C328.32 144.698 328.781 143.745 328.781 142.385V131.815C328.781 130.44 328.328 129.479 327.422 128.932C326.531 128.385 325.32 128.112 323.789 128.112C322.289 128.112 321.078 128.385 320.156 128.932C319.25 129.479 318.797 130.44 318.797 131.815V142.385C318.797 143.745 319.234 144.698 320.109 145.245C321 145.792 322.227 146.065 323.789 146.065ZM349.047 159.682C347.438 159.682 345.914 159.581 344.477 159.378C343.039 159.19 341.875 158.893 340.984 158.487L342.203 154.503C343.219 154.8 344.312 155.034 345.484 155.206C346.672 155.378 347.781 155.464 348.812 155.464C350.75 155.464 352.148 155.05 353.008 154.221C353.883 153.393 354.32 152.089 354.32 150.307V147.331C353.82 147.675 353.219 147.956 352.516 148.175C351.828 148.378 351.117 148.534 350.383 148.643C349.664 148.737 348.992 148.784 348.367 148.784C345.289 148.784 342.906 148.104 341.219 146.745C339.531 145.37 338.688 143.432 338.688 140.932V132.19C338.688 130.675 339 129.3 339.625 128.065C340.266 126.831 341.281 125.854 342.672 125.135C344.078 124.401 345.93 124.034 348.227 124.034C349.117 124.034 350.008 124.143 350.898 124.362C351.789 124.581 352.594 124.87 353.312 125.229C354.047 125.589 354.625 125.979 355.047 126.401L355.398 124.526H360.039V149.604C360.039 151.62 359.672 153.385 358.938 154.901C358.219 156.417 357.055 157.589 355.445 158.417C353.836 159.26 351.703 159.682 349.047 159.682ZM349.305 144.846C350.57 144.846 351.617 144.69 352.445 144.378C353.289 144.065 353.914 143.76 354.32 143.464V130.432C354.32 129.854 353.883 129.323 353.008 128.839C352.148 128.354 350.914 128.112 349.305 128.112C347.758 128.112 346.555 128.409 345.695 129.003C344.836 129.596 344.406 130.573 344.406 131.932V141.307C344.406 142.651 344.867 143.581 345.789 144.096C346.711 144.596 347.883 144.846 349.305 144.846ZM365.328 124.55H371.023V149.604H365.328V124.55ZM365.258 119.932V114.167H371.07V119.932H365.258ZM375.656 141.425V132.003C375.656 129.518 376.57 127.573 378.398 126.167C380.242 124.745 382.844 124.034 386.203 124.034C389.922 124.034 392.594 124.753 394.219 126.19C395.844 127.612 396.656 129.565 396.656 132.05V138.073H381.375V141.964C381.375 143.635 381.766 144.737 382.547 145.268C383.328 145.8 384.609 146.065 386.391 146.065C387.672 146.065 388.664 145.979 389.367 145.807C390.07 145.62 390.57 145.26 390.867 144.729C391.18 144.182 391.352 143.354 391.383 142.245H396.633C396.555 144.276 396.148 145.87 395.414 147.026C394.695 148.167 393.586 148.971 392.086 149.44C390.586 149.909 388.664 150.143 386.32 150.143C384.133 150.143 382.234 149.862 380.625 149.3C379.031 148.721 377.805 147.8 376.945 146.534C376.086 145.253 375.656 143.55 375.656 141.425ZM391.219 134.487V131.393C391.219 130.425 391.008 129.714 390.586 129.26C390.164 128.792 389.586 128.487 388.852 128.346C388.117 128.19 387.273 128.112 386.32 128.112C384.883 128.112 383.695 128.346 382.758 128.815C381.836 129.268 381.375 130.198 381.375 131.604V134.487H391.219ZM400.211 148.151L401.43 144.19C402.508 144.675 403.766 145.112 405.203 145.503C406.641 145.878 408.047 146.065 409.422 146.065C410.844 146.065 411.859 145.76 412.469 145.151C413.078 144.542 413.383 143.737 413.383 142.737C413.383 141.925 413.227 141.292 412.914 140.839C412.617 140.37 412.016 139.979 411.109 139.667L405.461 137.792C403.539 137.151 402.211 136.276 401.477 135.167C400.742 134.057 400.375 132.682 400.375 131.042C400.375 128.745 401.133 127.003 402.648 125.815C404.164 124.628 406.312 124.034 409.094 124.034C411.109 124.034 412.859 124.229 414.344 124.62C415.828 125.01 417.023 125.44 417.93 125.909L416.594 129.659C416.125 129.425 415.492 129.19 414.695 128.956C413.914 128.721 413.086 128.526 412.211 128.37C411.336 128.198 410.516 128.112 409.75 128.112C408.188 128.112 407.141 128.354 406.609 128.839C406.078 129.323 405.812 130.026 405.812 130.948C405.812 131.557 405.945 132.057 406.211 132.448C406.477 132.839 406.961 133.159 407.664 133.409L413.078 135.26C414.484 135.729 415.578 136.292 416.359 136.948C417.156 137.589 417.711 138.378 418.023 139.315C418.352 140.237 418.516 141.354 418.516 142.667C418.516 144.026 418.203 145.276 417.578 146.417C416.953 147.542 415.992 148.448 414.695 149.135C413.414 149.807 411.773 150.143 409.773 150.143C407.586 150.143 405.711 149.948 404.148 149.557C402.586 149.167 401.273 148.698 400.211 148.151ZM432.867 141.284V114.167H438.586V141.237C438.586 142.3 438.719 143.143 438.984 143.768C439.25 144.378 439.711 144.815 440.367 145.081C441.023 145.331 441.938 145.456 443.109 145.456H443.883L443.391 149.862H441.188C439.344 149.862 437.805 149.612 436.57 149.112C435.336 148.596 434.406 147.721 433.781 146.487C433.172 145.237 432.867 143.503 432.867 141.284ZM448.539 141.823V128.346H444.93V124.55H448.727L449.289 116.581H454.258V124.55H460.328V128.346H454.258V141.401C454.258 142.995 454.641 144.073 455.406 144.635C456.188 145.182 457.57 145.456 459.555 145.456H460.539L460.211 149.862H458.852C456.398 149.862 454.414 149.62 452.898 149.135C451.398 148.651 450.297 147.823 449.594 146.651C448.891 145.464 448.539 143.854 448.539 141.823ZM463.625 141.917V132.096C463.625 129.706 464.445 127.768 466.086 126.284C467.742 124.784 470.398 124.034 474.055 124.034C474.789 124.034 475.609 124.12 476.516 124.292C477.438 124.448 478.273 124.659 479.023 124.925V114.167H484.742V149.604H480.852L480.172 148.081C479.391 148.643 478.414 149.128 477.242 149.534C476.086 149.94 474.867 150.143 473.586 150.143C471.273 150.143 469.383 149.8 467.914 149.112C466.445 148.425 465.359 147.471 464.656 146.253C463.969 145.018 463.625 143.573 463.625 141.917ZM479.023 144.823V129.05C478.523 128.8 477.867 128.581 477.055 128.393C476.242 128.206 475.367 128.112 474.43 128.112C472.883 128.112 471.648 128.393 470.727 128.956C469.805 129.518 469.344 130.479 469.344 131.839V142.104C469.344 143.464 469.781 144.456 470.656 145.081C471.531 145.69 472.703 145.995 474.172 145.995C475.172 145.995 476.102 145.878 476.961 145.643C477.836 145.393 478.523 145.12 479.023 144.823ZM491.789 143.276H498.445V149.604H491.789V143.276Z" fill="white"/>
</svg>
