<svg width="192" height="222" viewBox="0 0 192 222" fill="none" xmlns="http://www.w3.org/2000/svg">
<path d="M40.502 90.7045L38.3882 95.568C38.0578 96.3599 37.5005 97.0364 36.7865 97.5123C36.0724 97.9881 35.2335 98.242 34.3754 98.242C33.5173 98.242 32.6784 97.9881 31.9643 97.5123C31.2502 97.0364 30.6929 96.3599 30.3626 95.568L28.2488 90.7045C24.5322 82.1007 17.7259 75.2025 9.17285 71.3708L2.65095 68.4578C1.85972 68.0939 1.18944 67.5106 0.719587 66.7773C0.249731 66.044 0 65.1913 0 64.3204C0 63.4495 0.249731 62.5968 0.719587 61.8635C1.18944 61.1302 1.85972 60.547 2.65095 60.183L8.81195 57.4419C17.58 53.5011 24.5028 46.3477 28.1542 37.4552L30.3368 32.205C30.6561 31.3917 31.213 30.6935 31.9349 30.2014C32.6568 29.7093 33.5103 29.446 34.384 29.446C35.2577 29.446 36.1111 29.7093 36.833 30.2014C37.555 30.6935 38.1119 31.3917 38.4312 32.205L40.6051 37.4466C44.2527 46.3407 51.1724 53.4973 59.9388 57.4419L66.1084 60.1916C66.8972 60.5566 67.5651 61.1397 68.0332 61.8721C68.5013 62.6045 68.75 63.4555 68.75 64.3247C68.75 65.1939 68.5013 66.0449 68.0332 66.7773C67.5651 67.5097 66.8972 68.0928 66.1084 68.4578L59.5779 71.3622C51.0265 75.1977 44.2233 82.099 40.5106 90.7045" fill="#4093FF"/>
<path d="M65.6631 34.9599L64.4559 37.7354C64.2672 38.1874 63.949 38.5735 63.5412 38.845C63.1334 39.1166 62.6543 39.2615 62.1643 39.2615C61.6742 39.2615 61.1952 39.1166 60.7874 38.845C60.3796 38.5735 60.0613 38.1874 59.8727 37.7354L58.6655 34.9599C56.5431 30.0497 52.6562 26.1129 47.7717 23.9262L44.0472 22.2638C43.5954 22.0561 43.2126 21.7233 42.9443 21.3048C42.6759 20.8863 42.5333 20.3997 42.5333 19.9026C42.5333 19.4056 42.6759 18.919 42.9443 18.5005C43.2126 18.082 43.5954 17.7491 44.0472 17.5414L47.5656 15.9771C52.5729 13.7281 56.5263 9.64566 58.6115 4.57077L59.8579 1.57453C60.0403 1.1104 60.3583 0.711935 60.7706 0.431077C61.1829 0.15022 61.6702 0 62.1692 0C62.6681 0 63.1555 0.15022 63.5678 0.431077C63.9801 0.711935 64.2981 1.1104 64.4804 1.57453L65.7219 4.56587C67.805 9.64172 71.7566 13.7259 76.7629 15.9771L80.2863 17.5463C80.7367 17.7546 81.1181 18.0874 81.3855 18.5054C81.6528 18.9234 81.7948 19.409 81.7948 19.9051C81.7948 20.4011 81.6528 20.8868 81.3855 21.3048C81.1181 21.7227 80.7367 22.0555 80.2863 22.2638L76.5568 23.9213C71.6734 26.1102 67.7882 30.0488 65.668 34.9599" fill="black"/>
<path d="M96.7451 59.4982L95.5379 62.2738C95.3493 62.7257 95.031 63.1118 94.6232 63.3834C94.2154 63.6549 93.7364 63.7998 93.2463 63.7998C92.7563 63.7998 92.2772 63.6549 91.8694 63.3834C91.4616 63.1118 91.1433 62.7257 90.9547 62.2738L89.7475 59.4982C87.6251 54.5881 83.7382 50.6513 78.8537 48.4645L75.1293 46.8021C74.6774 46.5944 74.2946 46.2616 74.0263 45.8431C73.758 45.4246 73.6154 44.938 73.6154 44.4409C73.6154 43.9439 73.758 43.4573 74.0263 43.0388C74.2946 42.6203 74.6774 42.2875 75.1293 42.0798L78.6477 40.5154C83.6549 38.2664 87.6083 34.184 89.6936 29.1091L90.94 26.1129C91.1223 25.6487 91.4403 25.2503 91.8526 24.9694C92.2649 24.6886 92.7523 24.5383 93.2512 24.5383C93.7502 24.5383 94.2376 24.6886 94.6498 24.9694C95.0621 25.2503 95.3801 25.6487 95.5625 26.1129L96.804 29.1042C98.887 34.18 102.839 38.2642 107.845 40.5154L111.368 42.0847C111.819 42.293 112.2 42.6258 112.467 43.0437C112.735 43.4617 112.877 43.9474 112.877 44.4434C112.877 44.9394 112.735 45.4251 112.467 45.8431C112.2 46.261 111.819 46.5938 111.368 46.8021L107.639 48.4596C102.755 50.6485 98.8702 54.5871 96.75 59.4982" fill="#4093FF"/>
<path d="M132.701 82.8653L173.293 123.466C175.671 125.844 177.3 128.868 177.977 132.162C178.653 135.457 178.348 138.878 177.099 142.001L156.778 192.81C155.637 195.654 153.758 198.142 151.333 200.015C148.908 201.888 146.026 203.079 142.986 203.465L99.3436 208.921C98.2208 209.053 97.0465 209.213 95.8206 209.402L92.0054 210.021L90.0119 210.382L83.7993 211.585L79.5459 212.487L73.1443 213.931L64.9383 215.89L51.6023 219.292L46.0514 220.788C44.6506 221.173 43.1754 221.2 41.7613 220.867C40.3472 220.534 39.0392 219.851 37.9574 218.882C36.8757 217.912 36.0546 216.686 35.5696 215.317C35.0846 213.947 34.9512 212.478 35.1816 211.043L35.4737 209.789L38.0086 200.234L40.2771 191.228L42.2362 183.022L43.6712 176.621L44.5734 172.359L45.785 166.155L46.4724 162.228L47.0224 158.55L52.6936 113.181C53.0796 110.14 54.2718 107.257 56.1468 104.832C58.0218 102.407 60.5113 100.528 63.3572 99.3892L114.166 79.0673C117.289 77.8185 120.71 77.5135 124.004 78.1902C127.299 78.8668 130.323 80.4868 132.701 82.8653ZM100.822 131.028C98.6507 133.2 97.1015 135.914 96.3354 138.888C95.5692 141.862 95.614 144.987 96.4651 147.938C95.8386 148.305 95.2612 148.75 94.7465 149.262L59.8771 184.131C59.6486 184.363 59.4907 184.655 59.4217 184.973L58.657 188.281L57.1274 194.666L56.3885 197.682C56.3128 197.972 56.3144 198.276 56.3929 198.566C56.4714 198.855 56.6243 199.119 56.8362 199.331C57.0481 199.542 57.3118 199.695 57.6011 199.774C57.8903 199.852 58.1951 199.854 58.4851 199.778L64.6461 198.275L71.2024 196.745C71.5184 196.672 71.8074 196.511 72.0359 196.281L106.905 161.412C107.417 160.9 107.861 160.325 108.229 159.702C111.14 160.539 114.221 160.591 117.16 159.854C120.098 159.116 122.79 157.615 124.961 155.503C127.132 153.39 128.707 150.741 129.524 147.824C130.342 144.907 130.374 141.825 129.617 138.892C128.86 135.958 127.341 133.277 125.214 131.12C123.087 128.962 120.428 127.405 117.505 126.607C114.583 125.809 111.501 125.797 108.573 126.573C105.645 127.35 102.973 128.886 100.83 131.028H100.822ZM140.847 66.7196C142.325 65.2388 144.293 64.3485 146.381 64.2156C148.47 64.0827 150.535 64.7164 152.189 65.9978L152.997 66.7196L189.456 103.17C191.013 104.713 191.922 106.792 191.997 108.983C192.071 111.174 191.305 113.311 189.856 114.956C188.406 116.6 186.383 117.629 184.2 117.831C182.017 118.033 179.84 117.393 178.113 116.042L177.297 115.32L140.847 78.8697C139.236 77.2583 138.331 75.0731 138.331 72.7946C138.331 70.5162 139.236 68.3309 140.847 66.7196Z" fill="black"/>
</svg>
